<svg xmlns="http://www.w3.org/2000/svg" xmlns:xlink="http://www.w3.org/1999/xlink" viewBox="0 0 116.44 106.89"><defs><style>.cls-1{fill:url(#Gradiente_sem_nome_19);}.cls-2{fill:url(#Gradiente_sem_nome_19-2);}.cls-3{fill:url(#Gradiente_sem_nome_15);}.cls-4{fill:url(#Gradiente_sem_nome_23);}.cls-5{fill:url(#Gradiente_sem_nome_23-2);}.cls-6{fill:url(#Gradiente_sem_nome_23-3);}</style><radialGradient id="Gradiente_sem_nome_19" cx="18.82" cy="31.72" r="24.24" gradientUnits="userSpaceOnUse"><stop offset="0.69" stop-color="#fba91d"/><stop offset="0.69" stop-color="#fba91d"/><stop offset="0.97" stop-color="#dc7f27"/></radialGradient><radialGradient id="Gradiente_sem_nome_19-2" cx="62.3" cy="29.24" fx="49.64386142220867" r="30" gradientTransform="translate(125.84 9.54) rotate(142.24) scale(1 0.8)" xlink:href="#Gradiente_sem_nome_19"/><radialGradient id="Gradiente_sem_nome_15" cx="96.38" cy="32.62" r="19.13" gradientUnits="userSpaceOnUse"><stop offset="0.53" stop-color="#fba91d"/><stop offset="0.72" stop-color="#f9a71e"/><stop offset="0.84" stop-color="#f39e20"/><stop offset="0.93" stop-color="#e99123"/><stop offset="1" stop-color="#dc7f27"/></radialGradient><linearGradient id="Gradiente_sem_nome_23" x1="119.15" y1="82.95" x2="-10.63" y2="85.3" gradientUnits="userSpaceOnUse"><stop offset="0" stop-color="#27aae1"/><stop offset="0.45" stop-color="#1483bd"/><stop offset="0.97" stop-color="#005996"/></linearGradient><linearGradient id="Gradiente_sem_nome_23-2" x1="128.02" y1="81.58" x2="-1.79" y2="83.93" xlink:href="#Gradiente_sem_nome_23"/><linearGradient id="Gradiente_sem_nome_23-3" x1="118.93" y1="89.08" x2="-0.99" y2="91.25" xlink:href="#Gradiente_sem_nome_23"/></defs><g id="Camada_2" data-name="Camada 2"><g id="Camada_1-2" data-name="Camada 1"><path class="cls-1" d="M20,10.88a35.56,35.56,0,0,1,12.68,2.55,5.75,5.75,0,0,1,3.27,5.25l0,.54c1,1,1.44,2.66,1.44,5a14.23,14.23,0,0,1,.07,2.34c0,1.53,0,3.09,0,4.67q.28,13.55.28,15.34a5.66,5.66,0,0,1-2.33,4.42A5.88,5.88,0,0,1,32,52a5.73,5.73,0,0,1-4.27-2l-.08,0a22,22,0,0,1-9.8,2.55h-1A17,17,0,0,1,6.46,49Q0,43.5,0,33.51,0,22.07,6.46,15.73A19.48,19.48,0,0,1,20,10.88Z"/><path class="cls-2" d="M69.8,0h.36q3.12,0,5,3.34a6.75,6.75,0,0,1,.5,2.05q0,11.52.15,41.63a7,7,0,0,1-1.08,2.87,6.1,6.1,0,0,1-3.23,2.16,32.6,32.6,0,0,1-6.54.5Q52.51,52.55,46,46.7q-2.81-2.81-3.27-4.17a16.05,16.05,0,0,1-2.08-7.72V33.12a19.72,19.72,0,0,1,3.26-10.67,22.67,22.67,0,0,1,3.6-4,27.72,27.72,0,0,1,11.6-5.57,32.64,32.64,0,0,1,5.24-.9V5.46c0-2.08,1.12-3.75,3.34-5A5.87,5.87,0,0,1,69.8,0Z"/><path class="cls-3" d="M112.18,22.16a20.81,20.81,0,0,0-4-5.28,15.91,15.91,0,0,0-10.56-4.2H96.34a17.72,17.72,0,0,0-8.94,2.59,17.37,17.37,0,0,0-4,3.23,20.8,20.8,0,0,0-5.32,14.12,20.27,20.27,0,0,0,4.53,13.14A18.67,18.67,0,0,0,86.1,49a19.37,19.37,0,0,0,11,3.55H98a15,15,0,0,0,8.19-2.44q1-.36,3.77-3.23a21.38,21.38,0,0,0,4.74-13.94A24.13,24.13,0,0,0,112.18,22.16ZM93.6,22.9a2.8,2.8,0,1,1,1.6,3.63A2.81,2.81,0,0,1,93.6,22.9Zm-6.45,2.8a2.8,2.8,0,1,1,1.59,3.62A2.8,2.8,0,0,1,87.15,25.7ZM98.78,43.43a3.07,3.07,0,0,1-3.09.42c-.85-.49-1.16-1.47-1.81-2.15a3.21,3.21,0,0,0-.73-.54,3.07,3.07,0,0,0-.9-.1c-.94.07-1.83.58-2.79.37a3,3,0,0,1-2-2.4,6.27,6.27,0,0,1,3.88-7.36,13.82,13.82,0,0,0,1.85-.81l.09,0c1.25-.65,3.41-2.06,4.8-1.06,1.13.8,1.5,2.45,1.94,3.68l0,.09a15.29,15.29,0,0,0,.82,1.85A6.28,6.28,0,0,1,98.78,43.43Zm1.18-18a2.8,2.8,0,1,1,1.6,3.62A2.8,2.8,0,0,1,100,25.38ZM108,33.81a2.8,2.8,0,1,1-1.59-3.63A2.79,2.79,0,0,1,108,33.81Z"/><path class="cls-4" d="M115,97.68a4.89,4.89,0,0,0-3.21-1.48c-.52,0-3.92.08-10.2.22v-.06L113.8,76A5.9,5.9,0,0,0,116,71.77v-.19a5,5,0,0,0-1.48-3.42,4.85,4.85,0,0,0-3.07-1.41l-11.28.06c-1,0-2.71,0-4.88,0l-3.58,0c-.16,0-.47,0-.83.07-6.15.12-13.22.3-15.37.3l-.34,0a13.21,13.21,0,0,0-.69-3.5q-1.64-3-4.4-3H69.8A4.9,4.9,0,0,0,65,65.49L65.25,67h-.54a5.49,5.49,0,0,0-1.82.38Q60,69,60,71.75v.32a4.76,4.76,0,0,0,.94,2.76,5,5,0,0,0,4,2h.47v5c0,1.74,0,8.16,0,10.84a16.19,16.19,0,0,0,2.51,9,11.25,11.25,0,0,0,9.7,4.87H78a4.32,4.32,0,0,0,4.18-4.34V101a4.38,4.38,0,0,0-4.53-4.32h0a2.49,2.49,0,0,1-1.45-.38,7.12,7.12,0,0,1-1-4.15c0-1.77,0-7.48,0-8.7V77.09l24.7-.28L87.58,97.33a6,6,0,0,0-2.16,4.21v.19a4.89,4.89,0,0,0,1.1,3,4.76,4.76,0,0,0,3.54,1.86q1.2,0,20.26-.47a6.56,6.56,0,0,0,3.8-.79,4.92,4.92,0,0,0,2.32-4V101A4.83,4.83,0,0,0,115,97.68Z"/><path class="cls-5" d="M26.22,65a19.63,19.63,0,0,0-12.75-4.11h-.94A39.08,39.08,0,0,0,3.74,62a5.3,5.3,0,0,0-2.39,1.47A4.86,4.86,0,0,0,0,66.66Q.26,93.09.6,98.78a13,13,0,0,0,.75,5,5,5,0,0,0,4.43,2.8,5.21,5.21,0,0,0,2.48-.66,4.9,4.9,0,0,0,2.45-4.21,82,82,0,0,1-.47-9.23v0c.73,0,1.56.06,2.48.06h0a24.23,24.23,0,0,0,11.59-2.58,13.68,13.68,0,0,0,7.09-12.4v-.28A15.68,15.68,0,0,0,26.22,65Zm-5,14.6c-1,1.95-3.76,3-8.39,3a21,21,0,0,1-2.76-.16L10,82,9.89,71a12.61,12.61,0,0,1,3-.22H13a13.46,13.46,0,0,1,5.5.94q3.11,1.29,3.1,5.65A5.68,5.68,0,0,1,21.2,79.62Z"/><path class="cls-6" d="M46.84,73.88h-.73q-7.43,0-11.52,4.84a14.54,14.54,0,0,0-3.16,9V88.9c0,.37,0,.86.09,1.48a20.91,20.91,0,0,0,3.22,9,17.14,17.14,0,0,0,2.81,3.4,14.55,14.55,0,0,0,10.53,4.09,21.76,21.76,0,0,0,6.07-.84q7-2.3,7-6.15v-.29a5.36,5.36,0,0,0-.35-1.72,4.54,4.54,0,0,0-4-2.69H56.5a4.66,4.66,0,0,0-2.21.64,9.11,9.11,0,0,1-6.06,1.91h-.52a5.08,5.08,0,0,1-2.7-.7,7.13,7.13,0,0,1-2.61-2.72q17-.47,17-.64a4.73,4.73,0,0,0,3.56-5,15.11,15.11,0,0,0-2.43-8.47Q56,73.87,46.84,73.88Zm5.65,11q-9.85.34-11.22.35h0c0-.18,0-.26.08-.26q1-2,5.14-2t6,1.83Z"/></g></g></svg>