<svg xmlns="http://www.w3.org/2000/svg" xmlns:xlink="http://www.w3.org/1999/xlink" viewBox="0 0 250.91 52.92"><defs><style>.cls-1{fill:url(#Gradiente_sem_nome_19);}.cls-2{fill:url(#Gradiente_sem_nome_19-2);}.cls-3{fill:url(#Gradiente_sem_nome_15);}.cls-4{fill:url(#Gradiente_sem_nome_23);}.cls-5{fill:url(#Gradiente_sem_nome_23-2);}.cls-6{fill:url(#Gradiente_sem_nome_23-3);}</style><radialGradient id="Gradiente_sem_nome_19" cx="18.82" cy="31.72" r="24.24" gradientUnits="userSpaceOnUse"><stop offset="0.69" stop-color="#fba91d"/><stop offset="0.69" stop-color="#fba91d"/><stop offset="0.97" stop-color="#dc7f27"/></radialGradient><radialGradient id="Gradiente_sem_nome_19-2" cx="62.3" cy="29.24" fx="49.64386142221123" r="30" gradientTransform="translate(125.84 9.54) rotate(142.24) scale(1 0.8)" xlink:href="#Gradiente_sem_nome_19"/><radialGradient id="Gradiente_sem_nome_15" cx="96.38" cy="32.62" r="19.13" gradientUnits="userSpaceOnUse"><stop offset="0.53" stop-color="#fba91d"/><stop offset="0.72" stop-color="#f9a71e"/><stop offset="0.84" stop-color="#f39e20"/><stop offset="0.93" stop-color="#e99123"/><stop offset="1" stop-color="#dc7f27"/></radialGradient><linearGradient id="Gradiente_sem_nome_23" x1="254.01" y1="25.54" x2="105.55" y2="28.22" gradientUnits="userSpaceOnUse"><stop offset="0" stop-color="#27aae1"/><stop offset="0.45" stop-color="#1483bd"/><stop offset="0.97" stop-color="#005996"/></linearGradient><linearGradient id="Gradiente_sem_nome_23-2" x1="264.16" y1="23.97" x2="115.66" y2="26.66" xlink:href="#Gradiente_sem_nome_23"/><linearGradient id="Gradiente_sem_nome_23-3" x1="253.75" y1="32.55" x2="116.58" y2="35.03" xlink:href="#Gradiente_sem_nome_23"/></defs><g id="Camada_2" data-name="Camada 2"><g id="Camada_1-2" data-name="Camada 1"><path class="cls-1" d="M20,10.88a35.56,35.56,0,0,1,12.68,2.55,5.75,5.75,0,0,1,3.27,5.25l0,.54c1,1,1.44,2.66,1.44,5a14.23,14.23,0,0,1,.07,2.34c0,1.53,0,3.09,0,4.67q.28,13.55.28,15.34a5.66,5.66,0,0,1-2.33,4.42A5.88,5.88,0,0,1,32,52a5.73,5.73,0,0,1-4.27-2l-.08,0a22,22,0,0,1-9.8,2.55h-1A17,17,0,0,1,6.46,49Q0,43.5,0,33.51,0,22.07,6.46,15.73A19.48,19.48,0,0,1,20,10.88Z"/><path class="cls-2" d="M69.8,0h.36q3.12,0,5,3.34a6.75,6.75,0,0,1,.5,2.05q0,11.52.15,41.63a7,7,0,0,1-1.08,2.87,6.1,6.1,0,0,1-3.23,2.16,32.6,32.6,0,0,1-6.54.5Q52.51,52.55,46,46.7q-2.81-2.81-3.27-4.17a16.05,16.05,0,0,1-2.08-7.72V33.12a19.72,19.72,0,0,1,3.26-10.67,22.67,22.67,0,0,1,3.6-4,27.72,27.72,0,0,1,11.6-5.57,32.64,32.64,0,0,1,5.24-.9V5.46c0-2.08,1.12-3.75,3.34-5A5.87,5.87,0,0,1,69.8,0Z"/><path class="cls-3" d="M112.18,22.16a20.81,20.81,0,0,0-4-5.28,15.91,15.91,0,0,0-10.56-4.2H96.34a17.72,17.72,0,0,0-8.94,2.59,17.08,17.08,0,0,0-4,3.23,20.8,20.8,0,0,0-5.32,14.12,20.27,20.27,0,0,0,4.53,13.14A18.67,18.67,0,0,0,86.1,49a19.37,19.37,0,0,0,11,3.55H98a15,15,0,0,0,8.19-2.44q1-.36,3.77-3.23a21.38,21.38,0,0,0,4.74-13.94A24.13,24.13,0,0,0,112.18,22.16ZM93.6,22.9a2.8,2.8,0,1,1,1.6,3.63A2.81,2.81,0,0,1,93.6,22.9Zm-6.45,2.8a2.8,2.8,0,1,1,1.59,3.62A2.8,2.8,0,0,1,87.15,25.7ZM98.78,43.43a3.07,3.07,0,0,1-3.09.42c-.85-.49-1.16-1.47-1.81-2.15a3.21,3.21,0,0,0-.73-.54,3.07,3.07,0,0,0-.9-.1c-.94.07-1.83.58-2.79.37a3,3,0,0,1-2-2.4,6.27,6.27,0,0,1,3.88-7.36,13.82,13.82,0,0,0,1.85-.81l.09,0c1.25-.65,3.41-2.06,4.8-1.06,1.13.8,1.5,2.45,1.94,3.68l0,.09a15.29,15.29,0,0,0,.82,1.85A6.28,6.28,0,0,1,98.78,43.43Zm1.18-18a2.8,2.8,0,1,1,1.6,3.62A2.8,2.8,0,0,1,100,25.38ZM108,33.81a2.8,2.8,0,1,1-1.59-3.63A2.79,2.79,0,0,1,108,33.81Z"/><path class="cls-4" d="M249.29,42.39a5.53,5.53,0,0,0-3.66-1.69q-.9,0-11.68.25v-.07l13.94-23.32a6.77,6.77,0,0,0,2.48-4.81v-.22a5.73,5.73,0,0,0-1.69-3.91A5.56,5.56,0,0,0,245.16,7l-12.89.08c-1.1,0-3.11,0-5.59,0l-4.1,0a8.56,8.56,0,0,0-.94.07c-7,.14-15.13.35-17.58.35l-.4,0a15.06,15.06,0,0,0-.79-4c-1.25-2.25-2.92-3.38-5-3.38h-.29a5.83,5.83,0,0,0-3.19,1.08,5.82,5.82,0,0,0-2.3,4.35l.28,1.74h-.61a6.17,6.17,0,0,0-2.08.43c-2.23,1.24-3.34,2.91-3.34,5v.36a5.45,5.45,0,0,0,1.08,3.16,5.67,5.67,0,0,0,4.52,2.34h.54v5.76c0,2,0,9.33,0,12.4A18.39,18.39,0,0,0,195.29,47a12.87,12.87,0,0,0,11.1,5.57h.51a5,5,0,0,0,4.79-5V46.22a5,5,0,0,0-5.19-4.95h0a2.81,2.81,0,0,1-1.65-.43,8.17,8.17,0,0,1-1.11-4.74c0-2,0-8.56,0-10V18.84L232,18.51,217.9,42c-1.66,1.61-2.48,3.21-2.48,4.81V47a5.65,5.65,0,0,0,1.26,3.41,5.43,5.43,0,0,0,4,2.12q1.36,0,23.17-.54c2.13,0,3.58-.3,4.35-.89a5.66,5.66,0,0,0,2.66-4.64v-.32A5.48,5.48,0,0,0,249.29,42.39Z"/><path class="cls-5" d="M147.7,5Q141.88.32,133.12.32H132a44.06,44.06,0,0,0-10,1.3,5.93,5.93,0,0,0-2.73,1.68,5.56,5.56,0,0,0-1.55,3.6q.29,30.24.68,36.74a14.75,14.75,0,0,0,.87,5.72,5.66,5.66,0,0,0,5.06,3.19,6,6,0,0,0,2.84-.75A5.6,5.6,0,0,0,130,47a94.91,94.91,0,0,1-.54-10.56v0c.84,0,1.78.07,2.84.07h0a27.63,27.63,0,0,0,13.26-3q8.12-4.92,8.12-14.18V19A18,18,0,0,0,147.7,5ZM142,21.73q-1.65,3.35-9.59,3.49a24.86,24.86,0,0,1-3.16-.18l0-.54L129,11.85a15,15,0,0,1,3.44-.25h.11a15.36,15.36,0,0,1,6.29,1.08q3.56,1.47,3.55,6.47A6.5,6.5,0,0,1,142,21.73Z"/><path class="cls-6" d="M171.29,15.16h-.83q-8.51,0-13.18,5.54A16.57,16.57,0,0,0,153.67,31v1.33c0,.42,0,1,.1,1.69a23.94,23.94,0,0,0,3.68,10.32,19.34,19.34,0,0,0,3.22,3.88,16.58,16.58,0,0,0,12,4.68,24.86,24.86,0,0,0,6.94-1q8-2.62,8-7v-.33a5.93,5.93,0,0,0-.4-2c-1.15-2.06-2.69-3.08-4.61-3.08h-.33a5.3,5.3,0,0,0-2.52.73,10.4,10.4,0,0,1-6.94,2.19h-.6a5.86,5.86,0,0,1-3.08-.8,8.21,8.21,0,0,1-3-3.12q19.48-.52,19.48-.73a5.41,5.41,0,0,0,4.08-5.67A17.24,17.24,0,0,0,187,22.46Q181.75,15.16,171.29,15.16Zm6.47,12.61q-11.28.39-12.84.39h0c0-.2.06-.29.1-.29.78-1.53,2.73-2.29,5.88-2.29s5.53.69,6.9,2.09Z"/></g></g></svg>